Coordinates
version=1
nRows=41
nColumns=38
inDegrees=no

Units are S.I. units (second, meters, Newtons, ...)
If the header above contains a line with 'inDegrees', this indicates whether rotational values are in degrees (yes) or radians (no).

endheader
time	pelvis_tilt	pelvis_list	pelvis_rotation	pelvis_tx	pelvis_ty	pelvis_tz	hip_flexion_r	hip_adduction_r	hip_rotation_r	knee_angle_r	ankle_angle_r	subtalar_angle_r	mtp_angle_r	hip_flexion_l	hip_adduction_l	hip_rotation_l	knee_angle_l	ankle_angle_l	subtalar_angle_l	mtp_angle_l	lumbar_extension	lumbar_bending	lumbar_rotation	arm_flex_r	arm_add_r	arm_rot_r	elbow_flex_r	pro_sup_r	wrist_flex_r	wrist_dev_r	arm_flex_l	arm_add_l	arm_rot_l	elbow_flex_l	pro_sup_l	wrist_flex_l	wrist_dev_l
1.05	1.01485	1.49319	-2.64401	0.894117	0.393813	0.922813	-0.292797	-0.00189436	-0.249031	0.0163641	0.211606	0	0	0.296068	0.0527656	-0.31615	0	0.0368943	0	0	-0.185509	-0.107996	-0.077425	-0.116675	-0.184477	0.0478686	0.480403	1.08626	0	0	-0.0818306	-0.352433	0.300513	0.640214	1.202	0	0
1.06	1.00184	1.49458	-2.62436	0.894761	0.384841	0.919666	-0.302117	0.00437299	-0.249498	0.0213483	0.221098	0	0	0.312179	0.0567061	-0.307088	0	0.0420024	0	0	-0.188356	-0.107767	-0.0844035	-0.117311	-0.184823	0.0461307	0.481351	1.08581	0	0	-0.0792879	-0.354041	0.297708	0.636175	1.20406	0	0
1.07	0.878699	1.4986	-2.49673	0.895277	0.375218	0.917758	-0.321435	0.00816536	-0.234124	0.0258515	0.231113	0	0	0.315878	0.0533336	-0.297012	0	0.0464567	0	0	-0.196446	-0.100447	-0.0891727	-0.11621	-0.185514	0.0426152	0.480617	1.08541	0	0	-0.0754636	-0.353014	0.293061	0.627747	1.20876	0	0
1.08	0.890258	1.49537	-2.50847	0.895982	0.365372	0.914726	-0.264625	-0.0224363	-0.361616	0.177181	0.317007	0	0	0.321122	0.0618155	-0.293935	0	0.0494518	0	0	-0.198739	-0.105311	-0.0902029	-0.118079	-0.187056	0.0382756	0.483327	1.08554	0	0	-0.0733933	-0.352212	0.287063	0.621242	1.21607	0	0
1.09	0.808057	1.50054	-2.42467	0.895628	0.354646	0.912735	-0.334223	0.00713682	-0.267791	0.0614189	0.27043	0	0	0.321973	0.0578851	-0.282214	0	0.0510127	0	0	-0.200003	-0.100553	-0.0929739	-0.118765	-0.184957	0.0329027	0.481136	1.08884	0	0	-0.0736098	-0.352557	0.278489	0.61303	1.22937	0	0
1.1	0.742683	1.50032	-2.36257	0.895331	0.343541	0.910835	-0.356198	0.00968703	-0.248715	0.0504826	0.263483	0	0	0.316912	0.0584335	-0.277255	0	0.0488717	0	0	-0.202628	-0.100745	-0.0909159	-0.120636	-0.184331	0.0293012	0.480066	1.09312	0	0	-0.0739786	-0.352737	0.272835	0.606678	1.23856	0	0
1.11	0.695173	1.50019	-2.31991	0.895061	0.332225	0.909127	-0.36136	0.00670381	-0.248554	0.0678721	0.268899	0	0	0.309903	0.0596081	-0.272976	0	0.042701	0	0	-0.203831	-0.101658	-0.0866701	-0.122419	-0.183531	0.0233562	0.478353	1.09725	0	0	-0.073981	-0.352584	0.26884	0.599475	1.2487	0	0
1.12	0.979309	1.50357	-2.61453	0.893934	0.321126	0.904703	-0.358985	-0.00585957	-0.236476	0.061107	0.274958	0	0	0.322449	0.070654	-0.269785	0	0.0340665	0	0	-0.18193	-0.117572	-0.0772091	-0.126925	-0.179298	0.0130617	0.475382	1.1025	0	0	-0.0782419	-0.356612	0.265746	0.596654	1.26338	0	0
1.13	0.98863	1.50496	-2.62948	0.893548	0.308671	0.903148	-0.362395	-0.0158018	-0.254455	0.0830075	0.28914	0	0	0.310651	0.0718854	-0.258329	0	0.030455	0	0	-0.17709	-0.120275	-0.0707583	-0.129075	-0.177058	0.00608133	0.468606	1.10512	0	0	-0.0800576	-0.357387	0.265272	0.590464	1.27268	0	0
1.14	0.964209	1.50203	-2.6083	0.893362	0.296701	0.902042	-0.36686	-0.0246369	-0.266813	0.10983	0.298761	0	0	0.313251	0.0739704	-0.25151	0.0296641	0.0377173	0	0	-0.17801	-0.125556	-0.0653053	-0.130331	-0.174056	-0.000103642	0.459949	1.10759	0	0	-0.0803725	-0.358862	0.265534	0.585115	1.2819	0	0
1.15	0.966387	1.49904	-2.61288	0.893441	0.284454	0.90106	-0.370542	-0.0341284	-0.276214	0.134965	0.303549	0	0	0.317616	0.0781187	-0.248466	0.0638052	0.0436285	0	0	-0.176871	-0.131426	-0.0603231	-0.131604	-0.170888	-0.00552304	0.449761	1.10941	0	0	-0.0816211	-0.360201	0.265912	0.580403	1.29115	0	0
1.16	0.9801	1.49573	-2.62882	0.893716	0.271938	0.900297	-0.372493	-0.0451434	-0.285042	0.16215	0.304789	0	0	0.319643	0.0839065	-0.245315	0.0872329	0.0339484	0	0	-0.174557	-0.13768	-0.0554764	-0.133386	-0.167835	-0.0108725	0.440074	1.11099	0	0	-0.0841268	-0.361275	0.265582	0.576853	1.3002	0	0
1.17	0.996414	1.49237	-2.6469	0.894184	0.259125	0.899779	-0.372096	-0.0573773	-0.294507	0.193749	0.303019	0	0	0.318617	0.0898269	-0.243824	0.102033	0.00478811	0	0	-0.171574	-0.143775	-0.0508857	-0.136124	-0.164778	-0.0168468	0.431652	1.11254	0	0	-0.0878408	-0.362195	0.265053	0.574714	1.30885	0	0
1.18	1.01081	1.48939	-2.66222	0.894868	0.246143	0.899554	-0.369124	-0.0700891	-0.303558	0.229789	0.297522	0	0	0.316926	0.0940895	-0.248162	0.116839	-0.0283233	0	0	-0.168454	-0.149096	-0.0467519	-0.139946	-0.161766	-0.0238381	0.425702	1.11396	0	0	-0.0922681	-0.363109	0.264954	0.57381	1.31677	0	0
1.19	1.01884	1.4866	-2.67005	0.895798	0.233154	0.899711	-0.363683	-0.083107	-0.31143	0.270571	0.287277	0	0	0.31668	0.096725	-0.255101	0.139261	-0.0468172	0	0	-0.166081	-0.153562	-0.0436012	-0.144375	-0.158947	-0.0318177	0.422764	1.11562	0	0	-0.0968949	-0.364195	0.265307	0.574098	1.32336	0	0
1.2	1.01145	1.48299	-2.66134	0.896982	0.220224	0.900402	-0.355805	-0.0972888	-0.318314	0.318052	0.270402	0	0	0.317798	0.0990873	-0.259048	0.172289	-0.0448708	0	0	-0.166075	-0.157684	-0.041733	-0.14867	-0.156404	-0.0400822	0.421852	1.11747	0	0	-0.101372	-0.365494	0.266301	0.575532	1.32861	0	0
1.21	0.985042	1.47792	-2.63237	0.898358	0.207276	0.901721	-0.346022	-0.112887	-0.323809	0.372396	0.244781	0	0	0.317652	0.102039	-0.259858	0.211521	-0.0296427	0	0	-0.169176	-0.161837	-0.0413464	-0.152624	-0.153928	-0.0480463	0.422102	1.11919	0	0	-0.105743	-0.367225	0.267711	0.578191	1.3323	0	0
1.22	0.95374	1.47194	-2.5966	0.899928	0.194209	0.903537	-0.333211	-0.129572	-0.327318	0.43293	0.207938	0	0	0.313611	0.106374	-0.259238	0.246977	-0.0120246	0	0	-0.173744	-0.166034	-0.04291	-0.156436	-0.151033	-0.0568739	0.422757	1.12091	0	0	-0.110425	-0.369698	0.270042	0.581885	1.33465	0	0
1.23	0.943968	1.46628	-2.58035	0.901702	0.181062	0.90542	-0.313708	-0.148188	-0.32996	0.499848	0.157606	0	0	0.306162	0.113057	-0.2577	0.271556	0.00158388	0	0	-0.176303	-0.170659	-0.0465453	-0.160201	-0.147655	-0.0666614	0.423322	1.12294	0	0	-0.11616	-0.373299	0.274073	0.587585	1.33401	0	0
1.24	0.963871	1.462	-2.59382	0.903585	0.168018	0.907032	-0.285775	-0.16825	-0.328362	0.570696	0.0941706	0	0	0.295363	0.12257	-0.253041	0.280166	0.00693386	0	0	-0.174901	-0.175457	-0.050467	-0.163576	-0.145125	-0.0716432	0.422798	1.12384	0	0	-0.122759	-0.377388	0.2796	0.594594	1.32703	0	0
1.25	0.780435	1.45698	-2.39925	0.9064	0.154652	0.91166	-0.280128	-0.175933	-0.337645	0.629411	0.000252546	0	0	0.255029	0.122851	-0.239504	0.272466	0.00733832	0	0	-0.195065	-0.163312	-0.0588509	-0.163338	-0.147149	-0.0701423	0.420743	1.1191	0	0	-0.124526	-0.375631	0.28349	0.594916	1.31847	0	0
1.26	1.06712	1.45914	-2.68345	0.907766	0.142195	0.90889	-0.210715	-0.20726	-0.313717	0.715401	-0.0591771	0	0	0.272975	0.144427	-0.238955	0.274628	0.0131157	0	0	-0.160161	-0.182249	-0.0592502	-0.171129	-0.144311	-0.0672856	0.421804	1.11201	0	0	-0.138413	-0.386289	0.292943	0.611373	1.30609	0	0
1.27	0.885542	1.45947	-2.49085	0.910705	0.129103	0.912988	-0.200166	-0.211548	-0.315683	0.770242	-0.150593	0	0	0.23272	0.142285	-0.223866	0.263816	0.0183385	0	0	-0.17689	-0.166795	-0.0672831	-0.17133	-0.148534	-0.0624714	0.420189	1.10119	0	0	-0.139235	-0.384736	0.300892	0.611666	1.29004	0	0
1.28	1.16529	1.4575	-2.7696	0.911548	0.117045	0.909864	-0.127577	-0.23759	-0.277212	0.854027	-0.201142	0	0	0.250017	0.162791	-0.224148	0.26841	0.0284618	0	0	-0.143356	-0.187106	-0.0681208	-0.179281	-0.146054	-0.0589766	0.424093	1.09734	0	0	-0.154761	-0.397701	0.307739	0.632697	1.27677	0	0
1.29	1.19322	1.45451	-2.79277	0.912859	0.104991	0.910441	-0.0908503	-0.245789	-0.252979	0.910496	-0.265119	0	0	0.237682	0.170669	-0.217278	0.268939	0.0372196	0	0	-0.139134	-0.191555	-0.0740506	-0.182021	-0.146217	-0.058301	0.427135	1.09782	0	0	-0.163218	-0.40391	0.30756	0.64375	1.27092	0	0
1.3	1.15575	1.45031	-2.75042	0.914194	0.0932244	0.912094	-0.0584089	-0.255661	-0.234777	0.968407	-0.329397	0	0	0.216729	0.176472	-0.208601	0.268684	0.0466367	0	0	-0.144746	-0.194091	-0.0810889	-0.183614	-0.147213	-0.0607056	0.433379	1.09876	0	0	-0.169153	-0.409517	0.307569	0.653744	1.26398	0	0
1.31	1.09328	1.44614	-2.68524	0.915065	0.0821013	0.914154	-0.0249466	-0.254443	-0.204717	1.0195	-0.387423	0	0	0.193292	0.178886	-0.202261	0.268698	0.0558548	0	0	-0.155111	-0.195482	-0.0864339	-0.184117	-0.148331	-0.0657046	0.442529	1.10027	0	0	-0.172146	-0.415032	0.307543	0.662054	1.25646	0	0
1.32	1.019	1.43972	-2.60762	0.91583	0.070979	0.916427	-0.00964011	-0.251517	-0.185364	1.04956	-0.402428	0	0	0.165065	0.181627	-0.196893	0.265492	0.0638469	0	0	-0.168685	-0.197686	-0.0927408	-0.185649	-0.149589	-0.0728419	0.455062	1.1041	0	0	-0.174455	-0.42131	0.308602	0.670125	1.24572	0	0
1.33	0.917372	1.43435	-2.50393	0.916724	0.0603959	0.919393	0.0152701	-0.253608	-0.164529	1.10529	-0.36465	0	0	0.131653	0.180421	-0.191563	0.257237	0.0698981	0	0	-0.186554	-0.194793	-0.0977203	-0.185743	-0.152718	-0.0816178	0.469463	1.11413	0	0	-0.172597	-0.425028	0.312078	0.673541	1.22681	0	0
1.34	0.847409	1.43093	-2.4309	0.917519	0.0498254	0.921913	0.0386753	-0.249217	-0.146392	1.14513	-0.309957	0	0	0.102729	0.17851	-0.187148	0.248432	0.0763208	0	0	-0.198709	-0.191934	-0.104076	-0.184621	-0.156574	-0.0841997	0.479806	1.12128	0	0	-0.171394	-0.4273	0.310546	0.672749	1.21941	0	0
1.35	0.786493	1.42981	-2.36628	0.918384	0.0393851	0.924324	0.0638878	-0.242261	-0.130152	1.1793	-0.251229	0	0	0.0760073	0.175174	-0.182099	0.237732	0.0812236	0	0	-0.207745	-0.187175	-0.111049	-0.18197	-0.161504	-0.0830286	0.487199	1.12587	0	0	-0.169292	-0.42745	0.306261	0.667322	1.21923	0	0
1.36	0.732428	1.43076	-2.30832	0.919325	0.0291734	0.926579	0.0910623	-0.233291	-0.115118	1.20734	-0.200444	0	0	0.0521139	0.170711	-0.176489	0.226263	0.0847771	0	0	-0.214013	-0.180834	-0.117907	-0.177736	-0.167195	-0.0795706	0.491491	1.12914	0	0	-0.16569	-0.425834	0.300613	0.658317	1.22286	0	0
1.37	0.68049	1.43346	-2.25178	0.920319	0.0191866	0.928677	0.11911	-0.222527	-0.102374	1.22874	-0.162006	0	0	0.031222	0.164961	-0.169983	0.21564	0.0874954	0	0	-0.21816	-0.173	-0.125078	-0.171916	-0.173084	-0.0744066	0.492288	1.13193	0	0	-0.160757	-0.423185	0.294543	0.646867	1.22828	0	0
1.38	0.625872	1.43703	-2.19163	0.921314	0.00922727	0.930704	0.145974	-0.21072	-0.092774	1.24295	-0.132797	0	0	0.0118343	0.158043	-0.163196	0.205599	0.0900357	0	0	-0.220885	-0.16406	-0.132735	-0.16483	-0.178854	-0.0673412	0.489113	1.13452	0	0	-0.155215	-0.420005	0.288114	0.634081	1.23506	0	0
1.39	0.566232	1.44061	-2.12559	0.922239	-0.000699141	0.932695	0.170899	-0.198279	-0.0859843	1.25052	-0.107813	0	0	-0.00694838	0.150137	-0.156796	0.196133	0.09258	0	0	-0.223167	-0.154442	-0.140681	-0.157065	-0.184005	-0.059225	0.482887	1.13644	0	0	-0.149209	-0.416889	0.28154	0.621094	1.24327	0	0
1.4	0.498953	1.44298	-2.05163	0.923041	-0.0104324	0.934725	0.193053	-0.185677	-0.0814981	1.2524	-0.0835268	0	0	-0.0262411	0.141462	-0.150949	0.187066	0.0948206	0	0	-0.226668	-0.144488	-0.148405	-0.148792	-0.18826	-0.0513504	0.474904	1.13778	0	0	-0.142387	-0.414222	0.275245	0.609297	1.25103	0	0
1.41	0.422875	1.44378	-1.96903	0.92391	-0.0198024	0.936879	0.218665	-0.178364	-0.0812813	1.25804	-0.0635187	0	0	-0.0464521	0.132414	-0.14354	0.177529	0.095598	0	0	-0.232167	-0.133465	-0.155423	-0.140276	-0.192375	-0.0437785	0.466813	1.13828	0	0	-0.133951	-0.411182	0.269345	0.598431	1.25758	0	0
1.42	0.354673	1.44346	-1.89278	0.924672	-0.02917	0.93883	0.235921	-0.16832	-0.082717	1.2493	-0.0409716	0	0	-0.0663266	0.123883	-0.134926	0.168331	0.0963053	0	0	-0.23765	-0.123575	-0.163068	-0.133669	-0.195002	-0.0378415	0.459918	1.13769	0	0	-0.126114	-0.410129	0.265069	0.59152	1.26229	0	0
1.43	0.290125	1.44279	-1.81929	0.925455	-0.0383261	0.940648	0.251594	-0.159303	-0.0869648	1.23504	-0.0196497	0	0	-0.0845251	0.115073	-0.126596	0.160803	0.0973077	0	0	-0.243243	-0.113712	-0.170454	-0.128845	-0.196631	-0.0336225	0.454739	1.13651	0	0	-0.117705	-0.409994	0.262459	0.587304	1.26527	0	0
1.44	0.2292	1.44168	-1.74894	0.926212	-0.0473197	0.942345	0.26562	-0.151272	-0.0936832	1.21545	-2.19338e-05	0	0	-0.101482	0.106041	-0.118337	0.154646	0.0987741	0	0	-0.248931	-0.104043	-0.177364	-0.125628	-0.197432	-0.0307376	0.451102	1.13636	0	0	-0.108956	-0.410577	0.261002	0.585665	1.2674	0	0
1.45	0.174014	1.44045	-1.68378	0.926929	-0.0562585	0.943893	0.277988	-0.144681	-0.102739	1.1909	0.0211263	0	0	-0.117394	0.097106	-0.109719	0.149118	0.100681	0	0	-0.254306	-0.0948202	-0.18351	-0.124753	-0.197265	-0.0324586	0.450573	1.13653	0	0	-0.0997521	-0.411788	0.260919	0.586031	1.26903	0	0
